<svg xmlns="http://www.w3.org/2000/svg" version="1.1" xmlns:xlink="http://www.w3.org/1999/xlink" xmlns:svgjs="http://svgjs.com/svgjs" width="1000" height="1000"><rect width="1000" height="1000" rx="200" ry="200" fill="#000000"></rect><g transform="matrix(33.333333333333336,0,0,33.333333333333336,100,100)"><svg xmlns="http://www.w3.org/2000/svg" version="1.1" xmlns:xlink="http://www.w3.org/1999/xlink" xmlns:svgjs="http://svgjs.com/svgjs" width="24" height="24"><svg version="1.1" height="24" width="24" viewBox="0 0 24 24" xmlns="http://www.w3.org/2000/svg">
  <path fill="#ffffff" d="M3 22a1 1 0 01-1-1V3a1 1 0 012 0v18a1 1 0 01-1 1zM15.5 2.134A1 1 0 0014 3v18a1 1 0 001 1h6a1 1 0 001-1V6.464a1 1 0 00-.5-.866l-6-3.464zM9 2a1 1 0 00-1 1v18a1 1 0 102 0V3a1 1 0 00-1-1z"></path>
</svg></svg></g></svg>